<?xml version="1.0" encoding="utf-8"?>
<svg version="1.1" id="Calque_1" xmlns="http://www.w3.org/2000/svg" xmlns:xlink="http://www.w3.org/1999/xlink" x="0px" y="0px"
	 viewBox="0 0 7.6 12.9" style="enable-background:new 0 0 7.6 12.9;" xml:space="preserve">
<path d="M0.3,1.9l4.5,4.5l-4.5,4.5c-0.4,0.4-0.4,1.2,0,1.6C0.8,13,1.5,13,2,12.5l5.2-5.2c0,0,0.1-0.1,0.1-0.1C7.4,7.1,7.4,7,7.5,6.9
	l0,0c0,0,0,0,0,0c0,0,0,0,0,0l0,0C7.7,6.4,7.6,6,7.3,5.6c0,0-0.1-0.1-0.1-0.1l0,0L1.9,0.3c-0.4-0.4-1.2-0.4-1.6,0
	C-0.1,0.8-0.1,1.5,0.3,1.9z M6.9,7.1L6.9,7.1L6.9,7.1L6.9,7.1z M6.9,5.7L6.9,5.7L6.9,5.7L6.9,5.7z"/>
</svg>
